<svg id="Layer_1" data-name="Layer 1" xmlns="http://www.w3.org/2000/svg" xmlns:xlink="http://www.w3.org/1999/xlink" viewBox="0 0 542.65 841.58"><defs><style>.cls-1{fill:url(#linear-gradient);}.cls-2{fill:url(#linear-gradient-2);}.cls-3{fill:url(#linear-gradient-3);}.cls-4{fill:url(#linear-gradient-4);}.cls-5{fill:url(#linear-gradient-5);}</style><linearGradient id="linear-gradient" x1="25.32" y1="832" x2="517.12" y2="340.2" gradientUnits="userSpaceOnUse"><stop offset="0" stop-color="#2f3c6c"/><stop offset="0.1" stop-color="#383e69"/><stop offset="0.28" stop-color="#524360"/><stop offset="0.5" stop-color="#7b4c51"/><stop offset="0.75" stop-color="#b4583d"/><stop offset="0.97" stop-color="#ea632a"/></linearGradient><linearGradient id="linear-gradient-2" x1="340.99" y1="303.42" x2="550.05" y2="94.36" xlink:href="#linear-gradient"/><linearGradient id="linear-gradient-3" x1="-7.47" y1="303.45" x2="201.59" y2="94.38" xlink:href="#linear-gradient"/><linearGradient id="linear-gradient-4" x1="306.1" y1="268.58" x2="445.46" y2="129.22" xlink:href="#linear-gradient"/><linearGradient id="linear-gradient-5" x1="97.01" y1="268.58" x2="236.38" y2="129.21" xlink:href="#linear-gradient"/></defs><path class="cls-1" d="M39.51,841.58a31.62,31.62,0,0,0-3.29-2c-14.81-6.74-19.62-18.23-13.59-33.54q20.88-53,42.05-106,85-213.3,170-426.6c1-2.53,1.89-5.12,3.05-8.28-24.31-14.13-39-34.79-40.3-63.39-1-21.6,6.61-40.3,22-55.53A73.77,73.77,0,0,1,327.57,151c27.28,31.93,25.05,86.39-22.66,114.42,1.67,4.37,3.35,8.9,5.13,13.38q103.8,260.57,207.6,521.1c9.07,22.76,6.59,29.75-14.59,41.7h-11.5c-9.8-3.86-15.29-11.24-18.92-21-7.24-19.43-15.21-38.6-22.91-57.86-2.51-6.27-5.12-12.51-7.75-18.92-2.51.77-4.33,1.27-6.11,1.9-43,15.11-85.88,30.53-129,45.13-8.81,3-12.27,6.91-11,16.09,2.2,15.6-2.87,27.84-18,34.66H264.71c-14.17-6.56-19.78-17.78-18.11-33,.21-1.89-.19-3.86.07-5.74.8-5.71-1.26-8.56-7.07-10.56-43.85-15.13-87.56-30.68-131.33-46.08-2.46-.86-5-1.5-7.85-2.34C90,769.87,79.66,795.1,70,820.59c-3.7,9.72-9.16,17.1-18.93,21ZM399.28,636.14c-33.63,14-66.23,27.42-98.75,41.08-1.86.78-4.35,3.12-4.37,4.77-.3,19.86-.2,39.73-.2,60.7l127.77-45.07C415.45,676.82,407.51,656.83,399.28,636.14Zm-280.4,61.41,127.74,45c0-20.65.19-40-.25-59.42-.05-2.24-3.08-5.39-5.47-6.44-14-6.18-28.18-11.85-42.3-17.7l-55.29-22.93C135,656.91,127.1,676.86,118.88,697.55ZM359,535c-20.67,9.32-40.33,18.12-59.9,27.12a5.85,5.85,0,0,0-3,4.15c-.19,19.32-.13,38.64-.13,59.28l85-35.26Zm-197.4,55.28,85,35.15c0-20.43.08-39.54-.14-58.64a6.6,6.6,0,0,0-3.23-4.81c-19.53-9-39.17-17.83-59.58-27.05C176.22,553.59,169.08,571.47,161.57,590.28Zm84.31-81.46V378.57L201.91,489Zm50.67-130.54V509l44.14-19.94ZM270.88,223.51a24.63,24.63,0,1,0-24.22-24.83A24.94,24.94,0,0,0,270.88,223.51Z"/><path class="cls-2" d="M542.65,198.48c-1.12,73.41-26.52,136.8-77.44,189.76-11.16,11.61-26,12.67-36.5,2.87-10.71-10-10.52-25.31,1.09-37.13,84.43-86,84.56-224.19-.12-310.32C418.31,32.09,418,17.18,428.26,7.11c10.48-10.32,25.64-9.35,37.07,2.54C516,62.41,541.36,125.55,542.65,198.48Z"/><path class="cls-3" d="M0,192.64C1.05,125.65,26.54,62.3,77.49,9.38,88.56-2.12,103.54-3.12,114,6.8s10.37,25-.81,36.56C80.45,77.21,59.36,117,52.39,163.65c-10.7,71.65,8.81,134.28,57.93,187.52,7.16,7.76,13.23,15.61,10.75,26.85-2.1,9.56-7.94,16.05-17.55,18.74s-17.89-.12-24.72-7A269.71,269.71,0,0,1,14.94,287.6C5,258.92.19,229.34,0,192.64Z"/><path class="cls-4" d="M444.05,196.17c-.91,49.26-16.93,89.43-49.13,123-8.32,8.67-18.5,11-28.35,7.05-16.5-6.69-20.44-27-7.46-40.78,14.13-15,25-31.94,30.41-51.87,12.1-44.71,2.34-84.33-28.3-119.06-4-4.55-7.77-10.2-9.2-16-2.71-10.88,3-21.16,12.6-26a24.35,24.35,0,0,1,28.78,4.67c27.12,27.29,43.47,60,48.77,98.17C443.26,183.16,443.61,191.11,444.05,196.17Z"/><path class="cls-5" d="M193.07,95.89c-3.9,6.28-6.93,13.36-11.84,18.72-41.13,44.87-44.58,111.17-7.8,159.06,3.49,4.54,7.57,8.65,11.29,13,9.05,10.67,8.48,25.81-1.27,34.8s-24.64,8.53-34.81-1.31c-66.34-64.2-66.33-178.26,0-242.61,8-7.78,18.32-9.87,27.92-5.67C185.79,75.94,191.26,84.49,193.07,95.89Z"/></svg>