<svg id="Layer_1" data-name="Layer 1" xmlns="http://www.w3.org/2000/svg" viewBox="0 0 526.25 318.42"><defs><style>.cls-1{fill:#ea632a;}.cls-2{fill:#12415a;}.cls-3{fill:#e5e4e4;}</style></defs><path class="cls-1" d="M341.44,151.91c-1.13,2.1-.64,4-.65,5.71,0,21.83,0,43.65,0,65.47,0,8.56-5,13.73-13.57,13.81-11.66.11-23.32.11-35-.06-10.33-.15-15-4.63-15.09-15-.27-21.82-.22-43.64-.38-65.46a8.62,8.62,0,0,1,2.26-5.8Q302.63,120.85,326.07,91a7.16,7.16,0,0,0,.47-1.69c-4.9.45-9.55.85-14.19,1.31-3.48.35-7,.7-10.43,1.16-6.08.8-6.14.81-4.8-4.91,5.48-23.49,11.05-47,16.46-70.47.8-3.44,2.2-4.85,6-4.9,20.86-.3,20.72-.32,31.22,18,15.72,27.43,31.67,54.74,47.53,82.09,2.4,4.14,3.47,4.17,6-.09,17.45-29.7,35-59.34,52.18-89.19,4.33-7.52,10-10.85,18.65-10.6,11.81.34,23.65,0,35.47-.07,9.78-.06,15.57,5.16,15.59,14.8q.15,98.7.06,197.4c0,7.44-5,12.75-12.44,12.9-12.65.25-25.32.33-38,0-9.22-.24-13.2-4.77-13.22-13.9,0-22.15,0-44.31-.06-66.47,0-1.41.75-3.58-.82-4.07-2-.63-2.41,1.82-3.17,3.09q-20.94,35.18-41.77,70.42c-4.78,8.07-10.2,10.77-19.51,9.49a15,15,0,0,1-11.44-7.94q-20.41-35.49-40.93-70.93C344,154.88,343.53,153,341.44,151.91Z"/><path class="cls-1" d="M166.2,96.59c0,23,.17,46,0,69s-10.49,41.3-27.79,55.81c-29.81,25-78.05,26.08-108.62,2.24C9.72,208-.63,187.43,0,161.72c.13-5.33.07-10.66.3-16,.32-7.48,5.36-12.36,12.79-12.41q18.74-.1,37.48,0c7.94,0,12.6,4.72,12.79,12.77.1,4.16,0,8.33.13,12.49.27,10.79,8.19,19,18.73,19.55s20.1-7.85,21.09-18.6c.17-1.81.09-3.66.09-5.49q0-63,0-125.93c0-11.71,4.62-16.31,16.34-16.31l31.48,0c9.44,0,14.63,5.06,14.64,14.37q0,35.22,0,70.46Z"/><path class="cls-2" d="M240.45,1.84c-15.44,14.19-17,54.54.2,70.77-13.16,3.43-26.24-.37-41.07-11.93-11.23,29.28-11.18,89.38.27,125.46,10.45-13.48,24.84-14.54,40.73-13.42-10,10.19-12.51,22.44-12.29,35.54.22,12.93,2.37,25.21,12.8,35a57.88,57.88,0,0,1-28.77-2.32c-28.78-9.34-25.77-10.28-30.07-33-3.56-18.86-4.68-38-4.89-57.17-.32-30.65-.87-61.31,2.17-91.88a304.57,304.57,0,0,1,5.29-33c1.44-6.76,4.92-11.66,11.48-14.64C210.09,4.92,224.1.19,240.45,1.84Z"/><path class="cls-2" d="M497.73,294c3-9.3,6.23-18.56,9-27.92,1.09-3.65,2.85-4.89,6.7-4.79,14,.38,12-1.85,12,12.31,0,12.82-.13,25.65,0,38.47,0,3.7-.88,5.7-5,5.39-3.65-.27-7.91,1.17-7.64-5.23a136,136,0,0,0-1.08-24.52c-2.37,7.67-4.76,15.33-7.11,23-2,6.56-5.22,8.36-11.71,6.73-2.12-.53-2.27-2.19-2.75-3.71-2.23-7-4.4-14-6.63-20.92a7.73,7.73,0,0,0-2.81-4.23c0,7.9-.37,15.83.11,23.7.38,6.2-3.55,5-7.08,5.2-3.83.26-5.79-.63-5.72-5.15.22-15.31.15-30.64,0-46,0-3.92,1.27-5.22,5.21-5.19,12.18.1,12.17,0,16,11.27,2.45,7.24,4.94,14.46,7.41,21.68Z"/><path class="cls-1" d="M311.76,0c-3.24,12-6.68,24-9.68,36.05-4.94,19.85-9.64,39.76-14.37,59.66-1.24,5.24-1.08,5.3,4.37,4.45,6.23-1,12.48-1.88,18.88-2.84-1.11,2.78-46.12,61.53-49.39,64.44,4.2-14,8.27-27.63,12.57-42l-8.93,1.29C265.92,116.71,308,6.33,311.76,0Z"/><path class="cls-2" d="M233.08,289.81c0-7.82,0-15.64,0-23.46,0-3.32,1.29-4.76,4.79-4.71,10.48.17,21,.27,31.44,0,4.74-.12,5.39,2.07,5.43,6.08s-.73,6.14-5.44,5.9c-6.8-.35-13.65.16-20.46-.13-4.31-.18-3.33,2.62-3.27,4.88s-1.33,5.54,3.4,5.3c6.14-.3,12.32.14,18.46-.17,4.48-.22,4.27,2.5,4.25,5.45s.66,6.16-4.2,6c-6.14-.18-12.32.31-18.46,0-4.66-.2-3.38,2.91-3.44,5.27s-1,5.42,3.57,5.2c7-.32,14,.19,21-.14,5.47-.25,4.56,3.25,4.73,6.55s-.1,5.71-4.6,5.6c-10.81-.26-21.64-.16-32.45,0-3.52,0-4.7-1.3-4.63-4.71.15-7.65.05-15.31.05-23Z"/><path class="cls-2" d="M87.54,289.25c0-7.5.14-15-.07-22.49-.1-3.57,1-5.24,4.75-5.21q16.48.12,33,0c3.83,0,4.46,2.25,4.12,5.25s1.18,6.83-4.13,6.77c-7-.08-14,.3-21-.12-4.71-.28-4,2.5-4,5.3s-.52,5.22,3.85,4.92c6.14-.41,12.33,0,18.48-.18,4.46-.15,4.11,2.76,4.19,5.65s.37,5.79-4,5.73c-6.16-.09-12.34.44-18.48.08-4.63-.27-4,2.45-4.11,5.29-.12,3.16,0,5.37,4.33,5.16,6.81-.34,13.66.16,20.48,0,3.9-.11,5,1.56,4.7,5.09-.28,3.17,1,7-4.46,7q-16.74-.14-33.48,0c-3.49,0-4.16-1.77-4.13-4.72.09-7.82,0-15.65,0-23.48Z"/><path class="cls-2" d="M384.2,289.46c-.05-16.78,11.61-29,27.69-29,15.31,0,27.08,12.33,27.25,28.51.17,16.44-12,29.31-27.63,29.27S384.25,306.11,384.2,289.46Zm42.36-.33c0-9.62-6.73-17.31-15-17.22-8.6.09-15,7.42-15,17.19,0,10.14,6.41,17.42,15.3,17.32C420.48,306.34,426.59,299.16,426.56,289.13Z"/><path class="cls-2" d="M303.41,289.49c0-13,6.44-23.21,17.25-27.23s22.57-1.25,30,7.39a17.68,17.68,0,0,1,3,4.53c1.2,2.93,3.61,6.32.47,9.07-2.71,2.37-9.76-.22-11.64-3.68-2.59-4.78-6.52-7.53-12-7.54a13.1,13.1,0,0,0-12.21,7.32,20.26,20.26,0,0,0,.07,20.09,12.84,12.84,0,0,0,12.31,7c5.54-.13,9.44-2.79,12-7.62a9,9,0,0,1,10.93-4.48c2.71.87,2.23,2.93,1.91,4.91-1.63,9.84-11.72,18.2-22.94,19C316.08,319.58,303.47,307.1,303.41,289.49Z"/><path class="cls-2" d="M264.65,207.45c0,9.44-1.2,17.62-5.08,25.16-2.24,4.38-5.18,8.5-10.74,8.5s-8.71-4-10.74-8.48c-7.26-16.09-7.57-32.41-.77-48.77a18.14,18.14,0,0,1,4.2-6.12c4-3.89,8-4.09,12.49-.75,4.65,3.47,7,8.4,8.43,13.75A57.21,57.21,0,0,1,264.65,207.45Zm-24,.22c.36,6.76,1.05,13.53,4,19.85.89,1.94,1.71,4.42,4.12,4.58,2.74.19,3.92-2.37,4.77-4.46,5.46-13.43,5.15-26.89-.32-40.25-.75-1.82-1.92-3.81-4.18-3.85-2.55,0-3.55,2.15-4.5,4.11C241.48,194,241.18,200.79,240.67,207.67Z"/><path class="cls-2" d="M264.64,36.79a63.62,63.62,0,0,1-3.86,22.49,21.38,21.38,0,0,1-3.58,6.52c-5.07,6.26-11.07,6.35-16.39.26a18.45,18.45,0,0,1-1.23-1.57c-9.25-12.85-9.25-42.57,0-55.29,5.43-7.47,12.5-7.58,17.88,0C263.25,17.46,264.52,27,264.64,36.79Zm-24,.67c.26,6.47.78,13.24,3.91,19.5,1,1.94,2,4.2,4.4,4.32,2.85.15,3.81-2.47,4.63-4.54,5.37-13.45,5.06-26.88-.66-40.15-.77-1.8-1.83-3.91-4.14-3.8s-3.26,2.1-4.09,3.94C241.73,23.19,240.81,30.07,240.63,37.46Z"/><path class="cls-2" d="M32.76,261.4c6.33,0,12.65.1,19,0,5.17-.12,4.18,3.45,4.29,6.54s.25,6.15-4.45,5.74c-2.81-.25-5.68.21-8.48-.05-3.67-.34-4.37,1.28-4.32,4.61.18,11.32-.17,22.65.16,34,.16,5.57-3.16,5-6.77,5.23-4,.21-5.72-.86-5.6-5.27.29-11.48,0-23,.22-34.46.07-3.42-1.08-4.4-4.24-4.16a56.73,56.73,0,0,1-7.49,0c-1.85-.09-4.5,1-5.12-1.7-.69-3-1.19-6.31.23-9.27.74-1.54,2.63-1.1,4.11-1.11Z"/><path class="cls-2" d="M161.63,289.41c0-7.32,0-14.64,0-22,0-6.09.21-6,7.7-6.2,4.83-.14,4.83,2.5,4.79,6-.14,11.15.08,22.29-.12,33.43-.06,3.57.7,5,4.62,4.78,6-.39,12,0,18-.21,4.87-.17,4.65,3,4.71,6.29s.07,5.95-4.49,5.88c-10.31-.17-20.62-.12-30.93,0-3.39.05-4.31-1.59-4.28-4.59C161.67,305,161.63,297.22,161.63,289.41Z"/><path class="cls-2" d="M202.7,79.15c3.13,1.55,5.78,3.62,9,4.34,2.77.62,2,2.66,1.62,4.38-1.54,7-2.74,14-3.72,21.13-2.21,16.09-.5,31.92,3.29,47.55.83,3.41.06,4.7-3,5.79-2.47.88-4.68,2.47-7.22,3.87C195.75,137.27,196.07,108.35,202.7,79.15Z"/><path class="cls-1" d="M277.05,71c0-15,0-29,0-42.92,0-11,5.41-16.42,16.57-16.3,8.32.09,8.32.09,5.08,7.85q-10,23.86-20,47.73C278.29,68.33,277.81,69.3,277.05,71Z"/><path class="cls-3" d="M252.21,214.72c-.64-1.77-1.47-3.59-3.74-3.26a3.28,3.28,0,0,0-2.82,3.58c.07,2,1.66,2.94,3.4,2.92S252,216.68,252.21,214.72Zm-3.68-10.9a3.3,3.3,0,0,0,3.18-3.15,2.67,2.67,0,0,0-2.55-3.07,2.87,2.87,0,0,0-3.44,2.73C245.55,202.18,246.57,203.43,248.53,203.82Z"/><path class="cls-3" d="M249,33.51c1.63-.54,3-1.62,2.76-3.8s-1.66-2.78-3.52-2.58-3.11,1.23-2.84,3.29C245.59,32.27,246.68,33.38,249,33.51Zm2.94,10.65c-.48-1.36-1.1-3-3.1-2.94a3.27,3.27,0,0,0-3.26,3.57c0,2,1.41,2.87,3.28,2.79S251.72,46.34,251.89,44.16Z"/><path class="cls-2" d="M252.21,214.72c-.18,2-1.3,3.23-3.16,3.24s-3.33-.89-3.4-2.92a3.28,3.28,0,0,1,2.82-3.58C250.74,211.13,251.57,213,252.21,214.72Z"/><path class="cls-2" d="M248.53,203.82c-2-.39-3-1.64-2.81-3.49a2.87,2.87,0,0,1,3.44-2.73,2.67,2.67,0,0,1,2.55,3.07A3.3,3.3,0,0,1,248.53,203.82Z"/><path class="cls-2" d="M249,33.51c-2.27-.13-3.36-1.24-3.6-3.09-.27-2.06,1-3.08,2.84-3.29s3.31.53,3.52,2.58S250.58,33,249,33.51Z"/><path class="cls-2" d="M251.89,44.16c-.17,2.18-1.16,3.34-3.08,3.42s-3.29-.78-3.28-2.79a3.27,3.27,0,0,1,3.26-3.57C250.79,41.15,251.41,42.8,251.89,44.16Z"/></svg>