<svg id="Layer_1" data-name="Layer 1" xmlns="http://www.w3.org/2000/svg" xmlns:xlink="http://www.w3.org/1999/xlink" viewBox="0 0 741.73 741.88"><defs><style>.cls-1{fill:url(#linear-gradient);}.cls-2{fill:url(#linear-gradient-2);}.cls-3{fill:url(#linear-gradient-3);}.cls-4{fill:url(#linear-gradient-4);}.cls-5{fill:url(#linear-gradient-5);}.cls-6{fill:url(#linear-gradient-6);}</style><linearGradient id="linear-gradient" x1="397.3" y1="688.71" x2="397.3" gradientUnits="userSpaceOnUse"><stop offset="0" stop-color="#2f3c6c"/><stop offset="0.14" stop-color="#60465b"/><stop offset="0.27" stop-color="#8a4f4c"/><stop offset="0.41" stop-color="#ac5640"/><stop offset="0.55" stop-color="#c75b36"/><stop offset="0.7" stop-color="#da5f2f"/><stop offset="0.84" stop-color="#e5612b"/><stop offset="1" stop-color="#e9622a"/></linearGradient><linearGradient id="linear-gradient-2" x1="66.28" y1="741.81" x2="66.28" y2="609.1" xlink:href="#linear-gradient"/><linearGradient id="linear-gradient-3" x1="143.18" y1="741.88" x2="143.18" y2="660.32" xlink:href="#linear-gradient"/><linearGradient id="linear-gradient-4" x1="40.74" y1="639.92" x2="40.74" y2="557.78" xlink:href="#linear-gradient"/><linearGradient id="linear-gradient-5" x1="169.37" y1="586.74" x2="169.37" y2="557.81" xlink:href="#linear-gradient"/><linearGradient id="linear-gradient-6" x1="458.19" y1="392.04" x2="458.19" y2="174.85" xlink:href="#linear-gradient"/></defs><path class="cls-1" d="M313.69,590.14c-1.78,7.67-3.21,14.62-5,21.47a138.51,138.51,0,0,1-24.27,48.87c-10.9,14.32-30.51,16.22-43.47,3.78-13.7-13.14-27-26.7-40.3-40.26-6.45-6.57-6.42-15.08-.44-21s14.54-5.67,21,.67C233,615.23,244.57,627,256.25,638.63c1.39,1.39,2.85,2.72,4.65,4.44,6.8-7.94,11.48-16.66,15.3-25.83a112.89,112.89,0,0,0,8.89-50.72,15.18,15.18,0,0,0-4-9.06c-31.87-32.21-64-64.16-95.93-96.31a14.78,14.78,0,0,0-11-4.72c-27.79-.7-52.84,7-75.6,24,1.5,1.68,2.72,3.19,4.09,4.56q17.46,17.55,35,35c4.31,4.32,6.32,9.33,4.51,15.44a14.19,14.19,0,0,1-21.74,7.77,35.81,35.81,0,0,1-4.88-4.26q-17.88-17.81-35.7-35.67c-15.6-15.64-14-34.78,3.75-47.79,19.46-14.23,41.19-22.87,64.93-26.64.77-.12,1.52-.3,3.13-.62-1.5-1.7-2.49-2.94-3.6-4-9-9.09-18.15-18.13-27.17-27.25-12.64-12.79-12.64-29.83.08-42.62,2.92-2.94,6.32-5.4,9.84-8.38-2.36-2.57-3.62-4.06-5-5.43q-31.08-31.12-62.18-62.23c-15.22-15.25-14.16-33.2,2.48-47a405,405,0,0,1,265.66-93.39,12.35,12.35,0,0,0,9.6-3.95c18.81-18.17,36.93-37.18,56.93-53.93,41-34.37,88.67-56,140.62-68.33A439.44,439.44,0,0,1,680.84,1.88c10.61,1,21.17,2.47,31.7,4.11A28.58,28.58,0,0,1,735.63,28.8a431.62,431.62,0,0,1,5.49,96.11,422.46,422.46,0,0,1-13.83,88.66C710.66,275.41,680,329.09,634.21,374c-9,8.87-17.84,18-26.93,26.8a10.82,10.82,0,0,0-3.59,8.78,388.07,388.07,0,0,1-8.55,90.83c-12.43,58.13-36.25,111.19-71.92,158.82-4.59,6.13-9.37,12.12-14.23,18-11.83,14.39-30.93,15.3-44.32,2.05C449.39,664.22,434.24,649,419,633.77c-6-6-12.18-11.86-17.94-18.1-3.17-3.43-5.08-3.54-8.67-.18-5.26,4.92-10.89,10.22-17.38,12.87-10.92,4.46-21.32,1.31-29.8-7-9.15-9-18.13-18.14-27.21-27.2C316.79,592.91,315.44,591.76,313.69,590.14Zm114.53-51.38c1-.93,2.2-2,3.37-3.21q91.52-91.5,183.07-183c33.82-33.67,59.13-72.66,75.58-117.46,1.24-3.36,1.15-5.61-1.58-8.34Q601.57,139.93,514.74,52.85c-2.39-2.38-4.42-2.82-7.46-1.7C465.65,66.51,428.14,88.72,396.57,120c-62.85,62.25-125.22,125-187.85,187.45-2.09,2.09-4.77,3.6-6.75,5.07ZM405.4,560.47,181.57,336.58,142,375.75l224,224.11Zm296-363.67a7.73,7.73,0,0,0,.8-1.66c8.93-37.87,11.91-76.29,9.94-115.07-.69-13.61-2.68-27.16-4.08-40.73-.32-3.06-1.25-5.29-5-5.66-7.61-.75-15.17-2.12-22.79-2.83A418.56,418.56,0,0,0,559.5,36.66c-5.07,1-10.07,2.32-14.72,3.41Zm-127,239.1L419,591.31,486.63,659C540,594.27,569.5,520,574.38,435.9ZM82.29,255.43c.94,1.19,1.38,1.88,1.94,2.44,21.2,21.2,42.47,42.34,63.56,63.65,3.15,3.19,4.65,1.28,6.77-.84q74.54-74.61,149.1-149.18c1-1,1.75-2.12,3.54-4.29C221.78,172.24,147.6,201.6,82.29,255.43Z"/><path class="cls-2" d="M132.55,626.4c-1.33,2-3.34,6.46-6.56,9.71C98.37,664,70.52,691.75,42.74,719.53c-5.65,5.65-11.24,11.37-17,16.92-7.17,6.91-15.45,7.12-21.62.73-5.85-6.07-5.52-14.61,1.2-21.35Q56.12,664.92,107,614.12c4.84-4.84,10.5-6.3,16.9-3.85C129.16,612.27,132.7,618,132.55,626.4Z"/><path class="cls-3" d="M102.44,725c.93-1.72,2.14-5.73,4.73-8.39q25.67-26.22,51.86-51.93a14.45,14.45,0,0,1,20.61-.16,14.06,14.06,0,0,1,0,20.21Q153.57,711.32,127,737.41c-4.32,4.27-9.63,5.83-15.57,3.13C105.77,738,102.77,733.56,102.44,725Z"/><path class="cls-4" d="M15.09,639.92c-6.59-.84-11.45-4-13.79-9.51C-1.36,624.11.22,618.67,4.86,614q20.76-20.89,41.62-41.69c3.41-3.42,6.75-6.92,10.31-10.17,6.3-5.77,14.45-5.78,20.21-.22a14.24,14.24,0,0,1,.11,20.6Q51.07,609,24.5,635.05C22.08,637.41,18.26,638.34,15.09,639.92Z"/><path class="cls-5" d="M183.8,572.65A14.43,14.43,0,1,1,155,572a14.43,14.43,0,1,1,28.85.69Z"/><path class="cls-6" d="M458.12,174.85a108.6,108.6,0,1,1-108.5,108.83A108.26,108.26,0,0,1,458.12,174.85ZM537.7,283.49A79.51,79.51,0,1,0,458.32,363,79.15,79.15,0,0,0,537.7,283.49Z"/></svg>