<svg id="Layer_1" data-name="Layer 1" xmlns="http://www.w3.org/2000/svg" xmlns:xlink="http://www.w3.org/1999/xlink" viewBox="0 0 781.04 780.56"><defs><style>.cls-1{fill:url(#New_Gradient_Swatch_1);}.cls-2{fill:url(#linear-gradient);}.cls-3{fill:url(#linear-gradient-2);}.cls-4{fill:url(#linear-gradient-3);}</style><linearGradient id="New_Gradient_Swatch_1" x1="390.52" y1="780.56" x2="390.52" gradientUnits="userSpaceOnUse"><stop offset="0" stop-color="#282a73"/><stop offset="0.08" stop-color="#443268"/><stop offset="0.25" stop-color="#764156"/><stop offset="0.42" stop-color="#9f4d46"/><stop offset="0.58" stop-color="#bf563a"/><stop offset="0.73" stop-color="#d65d31"/><stop offset="0.87" stop-color="#e4612c"/><stop offset="1" stop-color="#e9622a"/></linearGradient><linearGradient id="linear-gradient" x1="295.06" y1="209.92" x2="486.14" y2="209.92" gradientUnits="userSpaceOnUse"><stop offset="0" stop-color="#fff33b"/><stop offset="0.04" stop-color="#fee72e"/><stop offset="0.12" stop-color="#fed51b"/><stop offset="0.2" stop-color="#fdca10"/><stop offset="0.28" stop-color="#fdc70c"/><stop offset="0.67" stop-color="#f3903f"/><stop offset="0.89" stop-color="#ed683c"/><stop offset="1" stop-color="#e93e3a"/></linearGradient><linearGradient id="linear-gradient-2" x1="133.3" y1="309.44" x2="162.93" y2="309.44" xlink:href="#linear-gradient"/><linearGradient id="linear-gradient-3" x1="627.44" y1="324.28" x2="657.06" y2="324.28" xlink:href="#linear-gradient"/></defs><path class="cls-1" d="M187,676.66c-11.14-.78-21.1-3.54-29.74-10.15A48,48,0,0,1,143,607.76c3.53-7.35,7.62-14.42,11.32-21.68a7.7,7.7,0,0,0,1-4.61c-2.23-9.89-4.83-19.69-7.07-29.57-1.43-6.32-4.51-10.75-10.95-13a156.19,156.19,0,0,1-17.83-7.75c-3.39-1.67-5-1.09-6.41,2.42-2.94,7.48-6.37,14.74-13.08,19.72-10.76,8-22.58,9.76-34.91,4.64-15.2-6.32-30.26-13-45.18-20C3,530.07-4.58,510.9,2.84,493.77c17.44-40.29,35.31-80.4,53.05-120.57q23.89-54.09,47.91-108.11c8.14-18.23,26.77-25.9,45.26-18.33,15.23,6.24,30.29,12.94,45.17,20,17.15,8.12,24.1,26.54,17.17,44.15-1.89,4.8-4.29,9.39-6,14.23-.5,1.39,0,4.41.9,4.83,12.51,5.79,25,11.58,37.87,16.61,4.09,1.61,9.06,1,13.63,1.42l.66-1.25c-1-1.38-1.95-2.79-3-4.13C232,312.6,218,278.77,214,240.89A257.73,257.73,0,0,1,212.62,215c-.14-42.83.07-85.66-.18-128.49,0-8.34,3.13-13.15,10.8-16.41Q303,36.26,382.44,1.87a19,19,0,0,1,16.26-.1Q477.54,35.7,556.53,69.29c9,3.8,12.44,9.32,12.35,19.08-.4,44,.16,88-.32,132-.51,47.09-15.81,89.07-45.6,125.66-.84,1-1.67,2.07-2.46,3.14a6.7,6.7,0,0,0-.44,1.61c13.05,4.9,26,10.46,40.17,4.13,7.88-3.54,15.39-7.91,22.89-12.21,1.1-.63,2-3.26,1.59-4.55-2.14-7.14-5.42-14-7-21.25-3.18-14.7,4.48-30.58,18.21-36.52,16.46-7.14,33.21-13.76,50.23-19.42,17.86-5.94,35.28,2.76,42.28,20.42,13.54,34.17,26.73,68.48,40,102.74q25.06,64.67,50,129.37c7.19,18.76-1,37.6-19.58,45.19-14.77,6-29.64,11.88-44.66,17.26-19.08,6.83-37.27-1.59-45-20.25-1.19-2.89-2.39-5.78-3.81-9.22-9.25,3.82-18,7.87-27,11-6.46,2.23-9.06,5.12-8.8,12.67.65,19.07-12.16,36.45-30.6,43.15-3.42,1.25-4.62,2.68-3.65,6.09,7.22,25.61-13,58.47-48.42,57.26-1,0-1.95.15-3.4.27.19,15-4.88,27.78-16.27,37.65s-24.89,12.88-40,10.73c-.56,3.43-1,6.67-1.63,9.85-6.76,32.15-40.5,47.73-69.38,32.06-3.65-2-7.45-5.76-10.89-5.45-3.27.29-6.12,4.89-9.23,7.51a47.87,47.87,0,0,1-73.39-14.57c-1.86-3.61-3.49-4.52-7.63-3.21-21.08,6.68-43.37-2.19-55.05-21.69-1.72-2.87-3.08-3.45-6.26-2.13-33.09,13.71-67.77-10.24-66.78-46C187,680.18,187,678.71,187,676.66Zm124.92-62.41,3.85-.6c25.14-3.81,44.41,6.8,54.49,30.23,1.39,3.22,3.3,3,6,2.41,15.4-3.41,28.87.76,41.12,10.28,6,4.66,12.25,9,18.58,13.2,4.3,2.84,8.93,5.16,13.44,7.67,12.93,7.21,25.58,15,38.9,21.43,13.91,6.7,29.84-4.2,29.87-19.6,0-10.22-5.78-16.49-14.18-21.21q-41.56-23.34-83-46.89c-8.14-4.63-10.56-11.45-6.78-18.24s11.12-8.2,19.08-3.78c7.57,4.21,15.09,8.48,22.63,12.73q40.68,22.89,81.37,45.78c9.69,5.43,19.18,4.78,26.52-1.57,12.08-10.42,9.54-28.15-5.39-36.66-15.18-8.66-30.48-17.1-45.7-25.68-11.45-6.45-22.93-12.88-34.29-19.5-6.08-3.55-8.23-10.36-5.56-16.36a12.36,12.36,0,0,1,15-6.7,28.3,28.3,0,0,1,5.82,2.8c25.82,14.53,51.57,29.17,77.44,43.59,11.75,6.55,24.43,3.16,30.74-7.8,6-10.52,2.39-23.42-9.11-30Q533.39,515.71,473.85,482a38.07,38.07,0,0,0-27.53-4.37,250.1,250.1,0,0,0-28.79,7.92C395,493.49,373.41,504.33,349.72,509c-14.19,2.81-28.39,3.47-42.58-.16-20.8-5.32-36.43-18.1-49.6-34.36-8.37-10.34-6.56-21,5.08-27.68,36.46-20.82,68.2-47.58,97.87-77a11.77,11.77,0,0,0,1.2-2A72.79,72.79,0,0,0,334,361.5c-19.48-.81-37.81,5.25-56.54,8.95-18.3,3.61-36.34,4.38-53.7-4.26-8.49-4.23-17.22-8-25.71-12.17-3.47-1.71-5.1-1.18-6.72,2.51q-32,72.89-64.31,145.61c-1.56,3.5-.37,4.72,2.58,5.94,6,2.48,11.77,5.51,17.87,7.7,13.23,4.75,20.86,14.28,24.59,27.43.83,2.93,1.8,5.81,2.84,9.13,2.23-1.67,3.8-2.89,5.41-4,27.61-19.7,67-5.12,74.59,27.76.9,4,2.31,4.72,5.95,4.44,16-1.28,29.6,4.14,40,16.35C305,601.84,307.92,608,311.89,614.25ZM282.72,464.87c9.2,9.75,19.52,16.84,32.45,19.8,15.19,3.47,29.91.82,44.17-4.17,21.49-7.53,42.58-16.22,64.14-23.52,22.25-7.53,44.31-7.9,65.58,4.4,35.72,20.67,71.71,40.88,107.45,61.5,7,4,13.36,9.25,20.19,13.63A6.66,6.66,0,0,0,622,537c9.91-3.88,19.62-8.28,29.56-12.06,4.23-1.61,4.54-3.59,3-7.44q-28.95-74.12-57.68-148.32a37,37,0,0,0-2.06-3.91c-6.17,3.27-12,6.08-17.6,9.4-16.12,9.61-33.17,10.51-50.55,4.93-14.55-4.68-28.76-10.42-43.15-15.58-20.79-7.45-41.82-9.61-63.06-2-17.85,6.41-33.41,16.8-46.77,30-26.9,26.55-55.64,50.66-88,70.31A27.85,27.85,0,0,0,282.72,464.87ZM499.2,176.4h.12c0-16.83-.14-33.67.11-50.5.06-4.16-1.35-6.2-5.12-7.8C461.08,104,428,89.73,394.7,75.71a11.23,11.23,0,0,0-7.91-.12c-33.69,14.27-67.25,28.84-100.93,43.14-3.26,1.38-4.05,3.15-4,6.37.1,31.83,0,63.66.12,95.49a123.28,123.28,0,0,0,12.7,54c18.9,38.82,50.42,62.27,91.34,73.94,1.79.51,4.19-.31,6.06-1.09,7.82-3.25,15.42-7,23.34-10,6.18-2.32,13.5-2.42,18.95-5.74,40.62-24.79,62.55-61.14,64.76-108.81C499.81,207.42,499.2,191.9,499.2,176.4ZM77.1,535.2c6.67.22,9.18-3.21,11.13-7.62Q137.6,415.79,187,304c3.53-8,1.81-12.32-6.25-15.9q-19.61-8.69-39.25-17.31c-7.77-3.4-12-1.69-15.48,6.18L95.15,346.78q-33.9,76.64-67.78,153.29c-3.86,8.75-2.35,12.57,6.49,16.51q19.37,8.63,38.78,17.13A37.62,37.62,0,0,0,77.1,535.2ZM655.16,284.55c-.78.23-2.39.6-3.92,1.19q-20.25,7.8-40.46,15.67c-8.55,3.35-10.23,7.34-6.89,15.93q6.6,17,13.22,33.92l74.37,192.1c3.87,10,7.39,11.5,17.62,7.57q18.61-7.15,37.22-14.37c9.64-3.74,11.31-7.38,7.66-16.81Q718.57,428.37,683.11,337q-8.57-22.1-17.11-44.18C664.2,288.18,661.67,284.52,655.16,284.55ZM310,337.63c-.12-.64-.08-1-.26-1.26a26.08,26.08,0,0,0-2.06-2.15q-50.91-47.94-51-117.87c0-34,.08-68-.09-102,0-7.3,2.92-11.78,9.6-14.62q58.75-25,117.37-50.31a16.59,16.59,0,0,1,13.95-.07q58.65,25.23,117.4,50.23c6.84,2.91,9.84,7.64,9.81,15.1-.16,33.83,0,67.66-.15,101.49a186.59,186.59,0,0,1-1.47,21.9c-4.43,36-20,66.61-45.57,92.16-1.25,1.25-3.29,1.7-5,2.52l1.62,2.17c2.21.61,4.43,1.2,6.64,1.85A72.93,72.93,0,0,1,488,339c4,1.62,6.77,1.16,9.91-2.38,30.64-34.55,45.6-74.9,45.57-121q0-59.49.08-119c0-3.88-1.08-5.87-4.77-7.44-48.06-20.42-96-41-144.11-61.44a11.14,11.14,0,0,0-7.84,0c-48.23,20.44-96.35,41.12-144.55,61.62-3.44,1.46-4.56,3.29-4.54,7q.21,58.5,0,117A191.4,191.4,0,0,0,244,264.8a171.74,171.74,0,0,0,42,74.42,6.9,6.9,0,0,0,5.07,2.08C297.45,340.38,303.72,338.9,310,337.63ZM211.38,683.5c.94,10.28,7.11,18.71,16.54,21.71,11.73,3.73,22.29-1.26,28.68-13.61,9.23-17.86,17.91-36,27.84-53.49,5.86-10.31,1.44-26.87-12.76-31.6-8.49-2.83-19.05,0-22.77,6.48-11.08,19.32-22.16,38.64-33,58.1C213.81,674.89,212.86,679.35,211.38,683.5Zm137.2-23.2c-.92-3.14-1.44-6.49-2.84-9.43-3.94-8.24-10.76-12.72-19.85-12.78-8.74-.06-15.4,3.38-19.56,11.92-8.23,16.89-17.28,33.38-25.68,50.2a17.89,17.89,0,0,0-1.56,9.53c1.06,9.21,9.29,16.81,19.18,18.45,8.52,1.42,18.27-3.17,22.38-11q13.17-24.93,26-50C347.65,665.19,347.89,662.81,348.58,660.3ZM163.12,627.69a25,25,0,0,0,8,17.53c9.9,9.43,27.75,6.56,32.94-4.6,6.7-14.42,15.68-27.78,23.67-41.6,3.93-6.82,4.39-13.91,1.14-21-3.61-7.91-9.93-12.39-18.59-13.15-9.76-.85-17.33,3.23-22,11.66-7.54,13.5-14.74,27.19-21.83,40.93C164.82,620.57,164.2,624.25,163.12,627.69ZM366.7,755.2c7.51-.3,14.42-4.44,18.77-12.32,7.07-12.82,13.88-25.79,20.7-38.74a23.19,23.19,0,0,0,1.77-17.45c-2.29-8.38-10-15-19.11-16.11a20.43,20.43,0,0,0-21.39,11.33c-7.74,14.92-15.51,29.82-23.15,44.78a14.89,14.89,0,0,0-1.94,6.57C342.5,745.3,352.94,755.22,366.7,755.2Zm68.87-56.45c-4.16,9.2-7.75,18-12.08,26.49-7.57,14.8-7.8,14.8,8,21.26,8.13,3.3,15.81,1.83,22.32-3.92s8.85-13.13,6.66-21.66C457.07,707.55,444.54,704.78,435.57,698.75Z"/><path class="cls-2" d="M373.23,204c6.12-6.34,12.19-12.73,18.38-19,13-13.16,25.78-26.52,39.13-39.31,17.46-16.73,45.29-10,53.33,12.75,4.57,13,1.45,24.67-8.11,34.47-13.61,14-27.36,27.77-41.07,41.63q-18.81,19-37.67,37.94c-14.68,14.67-34.11,14.78-48.84.2-14.56-14.41-29.09-28.86-43.43-43.5-10.22-10.44-12.61-24.85-6.73-37.36a32.78,32.78,0,0,1,53.3-8.84c6.58,6.6,13.23,13.15,19.85,19.71A22.28,22.28,0,0,0,373.23,204Zm87.53-33.73c-.22-6.89-6.48-10.36-11.28-7.36a26.48,26.48,0,0,0-4.48,3.94Q414.25,197.89,383.51,229c-7.48,7.53-14,7.49-21.59,0-9.22-9.15-18.34-18.4-27.6-27.51-4.28-4.21-8.43-4.37-11.77-.82-3.17,3.36-2.88,7.5,1.07,11.47q21.3,21.42,42.73,42.7c4.52,4.49,8.36,4.47,12.93-.13q39.24-39.5,78.33-79.15C459.25,173.86,460.09,171.4,460.76,170.24Z"/><path class="cls-3" d="M148.17,324.23a14.43,14.43,0,0,1-14.87-14.77,14.82,14.82,0,0,1,29.63-.13A14.49,14.49,0,0,1,148.17,324.23Z"/><path class="cls-4" d="M642.42,309.49a14.35,14.35,0,0,1,14.64,14.93,14.67,14.67,0,0,1-14.58,14.66,15,15,0,0,1-15-14.86A14.58,14.58,0,0,1,642.42,309.49Z"/></svg>