<svg id="Layer_1" data-name="Layer 1" xmlns="http://www.w3.org/2000/svg" xmlns:xlink="http://www.w3.org/1999/xlink" viewBox="0 0 936.45 814.84"><defs><style>.cls-1{fill:url(#New_Gradient_Swatch_1);}.cls-2{fill:url(#New_Gradient_Swatch_1-2);}.cls-3{fill:url(#New_Gradient_Swatch_1-3);}.cls-4{fill:url(#New_Gradient_Swatch_1-4);}.cls-5{fill:url(#New_Gradient_Swatch_1-5);}.cls-6{fill:url(#New_Gradient_Swatch_1-6);}.cls-7{fill:url(#New_Gradient_Swatch_1-7);}</style><linearGradient id="New_Gradient_Swatch_1" x1="468.23" y1="814.84" x2="468.23" gradientUnits="userSpaceOnUse"><stop offset="0" stop-color="#2f3c6c"/><stop offset="0.14" stop-color="#60465b"/><stop offset="0.27" stop-color="#8a4f4c"/><stop offset="0.41" stop-color="#ac5640"/><stop offset="0.55" stop-color="#c75b36"/><stop offset="0.7" stop-color="#da5f2f"/><stop offset="0.84" stop-color="#e5612b"/><stop offset="1" stop-color="#e9622a"/></linearGradient><linearGradient id="New_Gradient_Swatch_1-2" x1="469.4" y1="628.71" x2="469.4" y2="302.9" xlink:href="#New_Gradient_Swatch_1"/><linearGradient id="New_Gradient_Swatch_1-3" x1="720.57" y1="381.96" x2="720.57" y2="354.14" xlink:href="#New_Gradient_Swatch_1"/><linearGradient id="New_Gradient_Swatch_1-4" x1="707.84" y1="444.4" x2="707.84" y2="416.56" xlink:href="#New_Gradient_Swatch_1"/><linearGradient id="New_Gradient_Swatch_1-5" x1="201.15" y1="203.33" x2="201.15" y2="162.05" xlink:href="#New_Gradient_Swatch_1"/><linearGradient id="New_Gradient_Swatch_1-6" x1="138.24" y1="203.33" x2="138.24" y2="162.05" xlink:href="#New_Gradient_Swatch_1"/><linearGradient id="New_Gradient_Swatch_1-7" x1="263.94" y1="203.34" x2="263.94" y2="162.05" xlink:href="#New_Gradient_Swatch_1"/></defs><path class="cls-1" d="M112,530.32c1.44-1.3,2.93-2.53,4.3-3.9,22.15-22.11,44.42-44.11,66.36-66.43,8-8.15,17.29-12.05,28.58-11.74,4.49.12,9-.14,13.49.06,3.65.15,5.05-1.2,5-4.92-.16-10.67-.14-21.33,0-32,.09-8.33.14-16.67.71-25,2.35-34.64,14.9-65.29,37-92,23-27.84,52.4-45.84,87.35-54.63,13.79-3.47,27.9-4.39,42.13-4.37q136.25.16,272.49,0c1.5,0,3.11.32,4.46-.13a7.41,7.41,0,0,0,2.9-2.56c.33-.42.13-1.29.13-2-.06-25,.47-50-.35-75-1-31.61-13-59.15-33.92-82.82-3.64-4.13-6.73-8.39-5.56-14.26,1.05-5.29,4.12-9.27,9.3-10.81,5.65-1.68,11.27-.72,15,4.11,7.71,10,15.84,19.81,22.28,30.6C698.74,108,705,135.9,705.06,165.26q.08,31,0,62c0,9.56.17,8.23,8,8.24,19.67,0,39.33,0,59,0,49.83.19,91.23,19.21,124.1,56.47,18.87,21.39,31.32,46.25,36.29,74.42a211.33,211.33,0,0,1,3.42,35.2c.34,50.83,1.19,101.69-.24,152.48-1.43,51.16-23.5,92.83-64.17,124.3a109.73,109.73,0,0,1-11.47,8c-3.45,2-4.67,4.58-4.65,8.54.12,30.83.2,61.67-.08,92.5A33.88,33.88,0,0,1,852,801.75c-6.5,13-23,17-35,8.92a50.58,50.58,0,0,1-7.68-6.33q-43.69-43.55-87.21-87.29a16.35,16.35,0,0,0-12.7-5.3q-155.74.19-311.49.13c-30.22,0-59-5.91-85.11-21.41A222.82,222.82,0,0,1,283,668.77c-8.11-6.83-5.8-18.85,3.7-23,5.82-2.52,11.06-.94,15.68,3.17a134.88,134.88,0,0,0,92.19,34.65c104.83-.12,209.66,0,314.48-.16,12.8,0,23.05,3.94,32.09,13.15,26.62,27.12,53.67,53.81,80.56,80.65,1.36,1.36,2.82,2.61,4.23,3.9l1.11-.38c.12-1.88.35-3.76.35-5.64,0-26.17.32-52.34-.1-78.5-.24-15.27,5.64-26.26,18.56-34.53,30.4-19.43,50-47,58.31-82.08a151.45,151.45,0,0,0,3.8-33.16c.39-49,.74-98,0-147-.79-53.71-24.94-94.29-71.91-120.7a123.76,123.76,0,0,0-61.25-15.76q-191.74-.21-383.48,0c-58.92.11-111.25,40.09-127.9,96.68A119.77,119.77,0,0,0,258.08,394q0,79.74,0,159.49c0,16.38,4.07,31.93,10,47.09,3.12,8,.11,15.91-7,18.83-7.89,3.23-15.5-.2-19-8.6-8.69-20.9-12.32-42.77-12.34-65.31,0-21,0-42,0-63,0-6-.12-5.41-6.16-6.2-12.49-1.63-21.32,2.94-30,12.14-21.1,22.45-43.41,43.76-65.15,65.61-7.16,7.19-15.44,10.92-25.67,9A24.19,24.19,0,0,1,83,539.94c-.23-14.82-.09-29.66-.1-44.49,0-11.5-.17-23,.08-34.5.09-4.4-1.56-7.1-5.2-9.35a159.92,159.92,0,0,1-54.25-55.52C9.44,372.27,1.24,346.49,1,318.85c-.53-54.16-2-108.41.31-162.47,2.86-65.65,36.24-113,95.39-141.77C118.28,4.11,141.44,0,165.43,0Q353.17.09,540.91,0a165.23,165.23,0,0,1,60.5,11.18c5.92,2.3,9.73,6.29,10,13,.25,6.05-2.7,11.32-8.57,13.27-3.09,1-7.16,1.33-10.11.2-19.28-7.4-39.2-9.91-59.73-9.89q-182.73.2-365.48.05C136.44,27.76,108,36,83.05,54.86c-27.23,20.59-44.83,47.57-51.37,81.19a172.46,172.46,0,0,0-3,31.75c-.31,47.49-.18,95-.13,142.49,0,33.13,10,62.86,31,88.65A126.13,126.13,0,0,0,92,427.52c8.26,5,14.9,11.34,17.36,21a49.43,49.43,0,0,1,1.21,11.85c.12,21.33.06,42.67.06,64v5.35Z"/><path class="cls-2" d="M566.84,410.26c-7.09-30.64-24.21-53.69-51.83-68.11-49.83-26-109.72-6.23-134.76,44.12-3.22,6.48-4.84,13.74-7.46,20.54-1.21,3.16.07,4.58,2.67,5.8a43.36,43.36,0,0,1,24.05,27.79,54.37,54.37,0,0,1,2.25,14.73q.42,23.73.05,47.48c-.36,21-9.87,36.45-29.65,44.33-27.57,11-57-7.65-61.12-34.46a129.76,129.76,0,0,1-1.08-18.4c-.16-12.5.13-25-.09-37.49-.41-23.46,13.92-40.08,30.49-45.92a7,7,0,0,0,3.75-4.51c5.92-28.87,19.69-53.21,42-72.49a122.59,122.59,0,0,1,62.5-29c32.23-5,62.37.67,89.77,18.54,30.18,19.68,48.78,47.45,56.17,82.77a7.91,7.91,0,0,0,4.13,4.82c19.25,8.08,30.11,23.84,30.22,44.59q.12,23.75,0,47.49c-.14,21.65-12.2,38.12-32.65,45.38-2,.7-3.9,3-4.72,5.07-5.61,14-14.23,25.54-26.43,34.32-4,2.9-8.58,5.08-12.73,7.83a9.63,9.63,0,0,0-3.77,4.15c-8.15,22.37-33.44,32.58-55.79,28.06-13.3-2.7-24.31-9.22-31.35-21.09-10.1-17-4.12-37.88,13.78-49.38,20.63-13.26,49.09-9.78,65.76,8.28,2.28,2.47,3.87,2.43,6.24.7a54.43,54.43,0,0,0,15.08-16.43c1.57-2.65,1-4-1.63-5.52-11.24-6.38-18.83-15.82-22-28.38a63.13,63.13,0,0,1-1.5-14.35c-.18-15.16,0-30.32-.07-45.49-.05-20.06,8.66-34.74,26.75-43.69A25.41,25.41,0,0,0,566.84,410.26Zm-1.72,68.24h0c0,9-.25,18,.06,26.95.4,11.33,11.89,19.14,22.68,15.76,8-2.51,12.58-8.19,12.77-17.59.34-16.29.21-32.61,0-48.91a21.42,21.42,0,0,0-2-8.65c-3.71-7.84-11.62-11.26-20.49-9.35-7.23,1.57-12.92,8.72-13.07,16.84C565,461.86,565.12,470.18,565.12,478.5Zm-191.59.66h.09c0-7.82.1-15.64-.05-23.45a25.33,25.33,0,0,0-1.18-8.31c-3.14-8.29-10.84-12.26-20.15-10.83a16.78,16.78,0,0,0-13.89,16.52c-.26,17.3-.12,34.6,0,51.89a16.56,16.56,0,0,0,1.08,5.84c3,7.58,11.25,12.4,18.68,11.17,9-1.49,15.13-7.94,15.4-16.89C373.74,496.46,373.53,487.81,373.53,479.16Zm130,98.15c-5.69-.18-10.89,1.22-15.25,5-4.79,4.14-4.79,9-.16,13.23,7.62,6.92,22.95,6.91,30.47,0,4.34-4,4.46-9,.1-13S509.21,577.2,503.51,577.31Z"/><path class="cls-3" d="M720.79,381.94c-17.83,0-35.66.09-53.49-.08a22.61,22.61,0,0,1-9.1-1.92c-5.36-2.51-8.13-9.1-6.89-14.76a14,14,0,0,1,12.18-10.87,23.15,23.15,0,0,1,2.5-.17q54.74,0,109.47.06a16.74,16.74,0,0,1,6.76,1.32c6.07,2.78,9,9.2,7.55,15.8a13.89,13.89,0,0,1-13.5,10.55c-18.49.11-37,0-55.48,0Z"/><path class="cls-4" d="M708,416.59c14.33,0,28.66-.08,43,0,6.32.05,12,4.59,13.27,10.19,1.56,6.78-1.08,13-7.17,16a17.09,17.09,0,0,1-7.2,1.53q-42,.15-84,0c-7.83,0-13.58-4.85-14.65-11.65a13.91,13.91,0,0,1,9.37-15.3,20.24,20.24,0,0,1,6.38-.77c13.67-.07,27.33,0,41,0Z"/><path class="cls-5" d="M221.9,182.68a20.42,20.42,0,0,1-20.54,20.65,20.64,20.64,0,1,1-.05-41.28A20.47,20.47,0,0,1,221.9,182.68Z"/><path class="cls-6" d="M117.49,182.52a20.43,20.43,0,0,1,20.73-20.47,20.64,20.64,0,1,1-.37,41.28A20.42,20.42,0,0,1,117.49,182.52Z"/><path class="cls-7" d="M263.86,203.34a20.65,20.65,0,1,1,20.69-20.45A20.3,20.3,0,0,1,263.86,203.34Z"/></svg>