<svg id="Layer_1" data-name="Layer 1" xmlns="http://www.w3.org/2000/svg" xmlns:xlink="http://www.w3.org/1999/xlink" viewBox="0 0 1005.49 1027.28"><defs><style>.cls-1{fill:url(#linear-gradient);}.cls-2{fill:url(#linear-gradient-2);}.cls-3{fill:url(#linear-gradient-3);}.cls-4{fill:url(#linear-gradient-4);}.cls-5{fill:url(#linear-gradient-5);}.cls-6{fill:url(#linear-gradient-6);}.cls-7{fill:url(#linear-gradient-7);}.cls-8{fill:url(#linear-gradient-8);}.cls-9{fill:url(#linear-gradient-9);}.cls-10{fill:url(#linear-gradient-10);}</style><linearGradient id="linear-gradient" x1="133.54" y1="985.05" x2="907.73" y2="210.86" gradientUnits="userSpaceOnUse"><stop offset="0" stop-color="#2f3c6c"/><stop offset="0.1" stop-color="#383e69"/><stop offset="0.28" stop-color="#524360"/><stop offset="0.5" stop-color="#7b4c51"/><stop offset="0.75" stop-color="#b4583d"/><stop offset="0.97" stop-color="#ea632a"/></linearGradient><linearGradient id="linear-gradient-2" x1="473.82" y1="617.15" x2="506.03" y2="617.15" gradientUnits="userSpaceOnUse"><stop offset="0" stop-color="#ff7300"/><stop offset="0.24" stop-color="#f67200"/><stop offset="0.63" stop-color="#dc7100"/><stop offset="0.99" stop-color="#bf6f00"/></linearGradient><linearGradient id="linear-gradient-3" x1="428.76" y1="613.93" x2="461.15" y2="613.93" xlink:href="#linear-gradient-2"/><linearGradient id="linear-gradient-4" x1="384.12" y1="602.73" x2="415.98" y2="602.73" xlink:href="#linear-gradient-2"/><linearGradient id="linear-gradient-5" x1="428.76" y1="413.28" x2="461.15" y2="413.28" xlink:href="#linear-gradient-2"/><linearGradient id="linear-gradient-6" x1="473.82" y1="418.02" x2="506.03" y2="418.02" xlink:href="#linear-gradient-2"/><linearGradient id="linear-gradient-7" x1="384.12" y1="402.11" x2="415.98" y2="402.11" xlink:href="#linear-gradient-2"/><linearGradient id="linear-gradient-8" x1="428.75" y1="512.73" x2="461.16" y2="512.73" xlink:href="#linear-gradient-2"/><linearGradient id="linear-gradient-9" x1="473.82" y1="517.58" x2="506.03" y2="517.58" xlink:href="#linear-gradient-2"/><linearGradient id="linear-gradient-10" x1="384.12" y1="501.7" x2="415.98" y2="501.7" xlink:href="#linear-gradient-2"/></defs><path class="cls-1" d="M688.38,586c-.67,2.09-1.1,2.75-1,3.35,3.65,36.24-18.47,55-47.28,68.57C605.25,674.32,567.84,680,529.89,683c-3.08.24-6.16.37-10.83.65,0,16.12-.28,32.17.3,48.19.09,2.41,3.82,5.36,6.52,6.91,32.88,18.82,65.75,37.66,98.93,55.94,8.92,4.91,12.89,11,12.79,21.29q-.57,61,0,122.06c.11,10.9-3.58,18-13.26,23.35-37,20.6-73.74,41.72-110.52,62.73-7.59,4.34-14.77,4.23-22.37-.13C454.7,1002.88,418,981.76,381,961.12c-9.26-5.16-13.16-11.78-13.06-22.36.35-41.38.26-82.76,0-124.13-.05-9,3.43-14.79,11.2-19.12,33.4-18.6,66.56-37.61,100-56.13,5.56-3.09,7.76-6.6,7.56-13-.45-14-.14-28.07-.14-40.92-26.68-4.33-52.38-7.14-77.36-13-17.89-4.21-35.44-11.26-52-19.33-26.06-12.68-42.88-32.39-38.45-64.85-4.34-.29-7.64-.69-10.93-.7-39.65,0-79.33.79-118.95-.35-21.09-.61-42.86,13.92-39.06,45.29.36,3,3.66,6.43,6.51,8.1,32.94,19.39,65.94,38.7,99.22,57.51,9.5,5.38,13.56,12.12,13.41,23.2q-.81,58.95-.15,117.92c.11,11.77-4.35,19.09-14.64,24.8-36.74,20.38-72.9,41.81-109.83,61.82-5.52,3-15.43,3.14-20.86.16-36.84-20.2-72.89-41.82-109.49-62.45C4,858,0,850.71.09,839.42c.34-40.34.14-80.68-.09-121,0-8.5,3.33-14.35,10.55-18.56,33-19.26,65.89-38.81,99.06-57.8,6.25-3.58,8.73-7.58,8.17-14.66-3.25-41.11,27.82-73.83,72.58-72.39,38.58,1.24,77.23.26,115.85.26h11.58v-48c-4,0-8,.06-11.93,0-31-.53-62.24,1.2-93-2.08C141.2,497.51,86,434.38,84,361c-1.88-71.68,50.62-136.65,120.8-149.46,6.07-1.11,12.2-2,18.85-3,8.45-55.69,37.07-96.74,90.54-117.12,53.14-20.26,101.36-8.5,145,28.35C477.89,68.77,510.8,32.25,560.78,12.35c37.87-15.06,76.46-16,115.47-4.64C743.73,27.39,812.53,100,795.37,208.1l14.55,3.43c69.26,16.31,116,80.26,112.9,154.44C920,432.9,865.18,493.56,797.89,503.28c-14.24,2.06-28.84,1.91-43.28,2.13-22,.33-44,.08-66.72.08v48.12H699.3q57.93,0,115.85,0c46.44,0,72.75,26,72.44,72.21-.05,8.29,2.5,12.83,9.71,16.94,32.59,18.62,64.77,38,97.23,56.84,7.66,4.45,11,10.48,11,19.35-.25,39.65-.53,79.3,0,118.95.16,12.54-4.2,20.43-15.22,26.6-36.06,20.18-71.48,41.52-107.71,61.38-5.49,3-15.4,3.13-20.87.16-37.54-20.32-74.37-42-111.63-62.84-9.16-5.13-13.29-11.92-13.24-22.44.2-41,0-82.06-.15-123.09,0-8.49,4-14,11.22-18.13,33.18-19,66.09-38.45,99.37-57.27,6.57-3.72,9.07-7.83,9-15.39-.38-27.27-13.53-40.93-40.46-40.94H688.38Zm-1.22-113.69c2.15.57,3.43,1.22,4.72,1.22,29,0,58,1.35,86.85-.37,75.53-4.5,126.74-73.63,108.76-145.23A118.46,118.46,0,0,0,778.1,239.17c-17.29-.82-22.73-9.14-18.83-26.09,2.23-9.72,5.07-19.43,6-29.3,6.1-68-39.11-130.83-105.64-147.48-68-17-139,17.53-164.58,81.83-6.6,16.58-8.32,35.26-11.09,53.16-2,12.8-7.63,19.09-19.05,17.69-9-1.1-13.91-7-13.44-18.71.38-9.19-1.91-16.23-8.53-23a108.31,108.31,0,0,0-157,1.21c-16.2,17.24-26.25,37.42-29.17,61.2,7.8,2,14.78,3.74,21.71,5.67a79.68,79.68,0,0,1,9.75,3.38c10.88,4.62,15.51,12.94,12.22,21.69-3.37,9-11.94,12.59-23.08,9.18-20.7-6.33-41.53-9-63.17-5.25-54.42,9.36-96.08,58.5-96.38,114.38-.3,56.5,40.71,107.82,95.92,115.21,30.18,4,61.18,1.94,91.81,2.59,4,.08,8,0,12.43,0,.19-3.37.41-5.38.41-7.39,0-54.12.22-108.24-.24-162.36-.14-16.3,4.29-30.82,17-40.35,13.58-10.21,28.28-20.27,44.09-25.93,74.95-26.82,151.2-26.83,227.72-6.74,22.12,5.8,43.12,14.51,60.73,29.71,12.57,10.85,20,24.11,19.84,41.37-.36,29.64-.22,59.29-.25,88.94Q687.13,433,687.16,472.26Zm-183.78-119c28.2-3.77,56.6-6.5,84.55-11.66,20.91-3.87,41.3-10.92,58-25.17,11.84-10.11,12.2-19.9-.35-28.89-10.21-7.32-21.6-13.83-33.44-17.88-66.4-22.76-133.81-22.61-201.51-6.37-18.81,4.51-37.06,11-51.93,24.14-10.56,9.31-11,19.07,0,27.87a113.75,113.75,0,0,0,27.26,16.19C423.37,347,462.93,350.9,503.38,353.22ZM350.11,553.44c0,8.93.09,18.18,0,27.44-.36,30.93,3.73,37.38,32.34,50a135.56,135.56,0,0,0,13.51,5.08c59.09,18.85,119.13,19.69,179.66,9,22.45-4,44.5-10,63.54-23.06,6.42-4.4,14.28-11.55,15.16-18.26,2.17-16.68.71-33.84.71-50C553.16,595.54,452.4,595.3,350.11,553.44Zm0-200.69v25.87c0,33.95,3.95,39.8,35.81,53,3.18,1.31,6.39,2.57,9.66,3.61,59.48,19,119.89,20,180.8,8.84,23.12-4.22,45.73-10.57,65.09-24.56,5.25-3.79,11.69-10,12.21-15.53,1.59-17.14.58-34.53.58-50.68C553,394.94,452.17,394.77,350.1,352.75Zm0,101c0,8.87,1.14,18.33-.21,27.41-4,26.91,10.1,41.13,32.95,49.9,4.81,1.85,9.55,3.88,14.45,5.43,57,17.94,115,18.72,173.34,9.18,24.16-3.94,47.92-10.33,68.37-24.37,6.55-4.49,14-12.23,15-19.32,2.24-16,.71-32.61.71-47.94C553.33,495.77,452.4,495.44,350.1,453.78Zm237.39,358.8c-1.07-1.32-1.54-2.34-2.33-2.79-25.91-15-51.75-30-77.93-44.53-2.7-1.5-8-.54-11,1.15-21.06,11.65-41.86,23.78-62.71,35.8-5.22,3-10.34,6.2-16.31,9.78,27.75,16.1,54.13,31.53,80.71,46.6,2.41,1.36,6.83,1.63,9.14.33C533.87,843.76,560.5,828.2,587.49,812.58Zm-368-97.17C191.56,699.35,165.09,684,138.44,669c-2.22-1.25-6.23-1.7-8.28-.54-26.74,15.26-53.27,30.88-80.88,47,27.66,16,54.09,31.33,80.71,46.35,2.07,1.17,6,.86,8.24-.36C164.93,746.54,191.47,731.34,219.49,715.41Zm566.64,0c24.36,13.84,48.13,26.33,70.75,40.64,11.19,7.08,19.3,6.79,30.28-.23,22.16-14.16,45.4-26.64,69.15-40.36-27.35-16-53.42-31.35-79.65-46.41-2.22-1.27-6.22-1.78-8.27-.63C841.18,683.66,814.18,699.29,786.13,715.39ZM519.23,983.66c28.63-16.46,55.71-31.85,82.48-47.76,2.36-1.41,3.71-6.27,3.75-9.54.31-23.73.17-47.46.17-71.2V840.6c-23.42,13.67-44.08,27.38-66.19,38.1-16.59,8-22.05,18.56-20.62,36.58C520.57,937.34,519.23,959.64,519.23,983.66ZM399.88,841.2c0,30.74-.24,58.92.31,87.08.07,3.32,3.81,7.73,7,9.65,23.93,14.2,48.15,27.91,72.32,41.71a43.63,43.63,0,0,0,6.16,2.38,23.86,23.86,0,0,0,.48-2.9c0-18.23.11-36.46.05-54.69,0-11,3.43-24.19-1.44-32.37-5.09-8.55-18.21-12.42-28-18.1C438.55,863.32,420.16,852.86,399.88,841.2Zm572.93-94.57c-1.93.37-3,.32-3.83.77-25.39,14.38-50.85,28.64-76,43.48-2.67,1.57-4.65,6.52-4.71,9.94-.42,22-.22,44-.22,66.07v19c28.76-16.27,55.34-31.22,81.76-46.44,1.6-.92,2.83-3.92,2.84-6C972.86,804.66,972.81,775.85,972.81,746.63Zm-736.69-1c-2.08.47-3.14.48-4,.93-25.4,14.4-50.92,28.62-76,43.56-3.15,1.88-5.58,7.55-5.69,11.53-.55,21.34-.26,42.69-.26,64v20c29-16.64,55.82-31.93,82.48-47.46a7.91,7.91,0,0,0,3.29-5.73C236.18,803.67,236.12,774.9,236.12,745.61Zm617.53,139c.79-2,1.43-2.93,1.43-3.81.1-27.55.35-55.1-.13-82.64-.05-3.06-3.67-7.09-6.69-8.9-16.51-9.89-33.33-19.24-50.07-28.73-9.13-5.18-18.31-10.27-28.83-16.16,0,30.33-.18,58.84.28,87.34,0,2.79,3.42,6.42,6.19,8.11,12.62,7.71,25.58,14.86,38.41,22.21Zm-821-140.31c0,30.32-.21,58.54.3,86.76.05,3.06,3.58,7.14,6.58,8.89,23.17,13.55,46.59,26.66,70,39.82,2.19,1.24,4.69,1.93,7.87,3.2,0-28.85.13-56.39-.18-83.93,0-2.84-1.89-6.93-4.18-8.28C87.05,775.38,60.8,760.45,32.68,744.28Z"/><path class="cls-2" d="M473.82,617.6c-.08-13.55,5.39-20.54,16.08-20.53,10.34,0,16,6.88,16.13,19.58.12,13.36-5.59,20.62-16.21,20.58C479.5,637.2,473.9,630.33,473.82,617.6Z"/><path class="cls-3" d="M461.15,613.8c0,13.49-5.53,20.16-16.58,20C434,633.56,428.79,627,428.76,614q-.06-20.22,16.6-19.91C456,594.31,461.13,600.75,461.15,613.8Z"/><path class="cls-4" d="M416,603c0,12.86-5.43,19.66-15.7,19.83-10.57.18-16.22-6.95-16.16-20.4.05-12.95,5.35-19.61,15.7-19.74C410.56,582.52,416,589.38,416,603Z"/><path class="cls-5" d="M461.15,413.87Q461,433.16,444.9,433.1c-11,0-16.29-6.75-16.14-20.4Q429,393.4,445,393.46C456.05,393.51,461.28,400.14,461.15,413.87Z"/><path class="cls-6" d="M473.82,417.15c.16-12.56,6-19.37,16.46-19.12,10.61.25,16,7.44,15.75,21-.25,12.67-6,19.26-16.57,19S473.65,431,473.82,417.15Z"/><path class="cls-7" d="M416,402.44c-.06,12.81-5.52,19.64-15.8,19.74-10.56.11-16.13-7-16.06-20.5.07-12.91,5.43-19.58,15.8-19.65C410.65,382,416,388.8,416,402.44Z"/><path class="cls-8" d="M461.15,513.38c-.12,12.92-5.47,19.22-16.28,19.19-11.06,0-16.27-6.65-16.11-20.41.15-12.8,5.66-19.32,16.29-19.26Q461.36,493,461.15,513.38Z"/><path class="cls-9" d="M473.82,517.12c.08-12.73,5.66-19.56,16-19.6,10.63,0,16.34,7.2,16.2,20.57-.14,12.73-5.77,19.55-16.13,19.56C479.2,537.65,473.74,530.68,473.82,517.12Z"/><path class="cls-10" d="M416,501.71c0,12.89-5.32,19.69-15.54,19.95-10.61.27-16.34-6.82-16.32-20.19,0-13.21,5-19.54,15.53-19.74C410.68,481.53,416,488,416,501.71Z"/></svg>